<svg width="80" height="80" viewBox="0 0 80 80" fill="none" xmlns="http://www.w3.org/2000/svg">
<mask id="mask0_27_134" style="mask-type:alpha" maskUnits="userSpaceOnUse" x="0" y="0" width="80" height="80">
<rect x="0.437622" width="79.1136" height="80" fill="#D9D9D9"/>
</mask>
<g mask="url(#mask0_27_134)">
<path d="M17.2749 24.1023C16.5777 23.2645 16.0379 22.3542 15.6555 21.3715C15.2726 20.3887 15.0811 19.3545 15.0811 18.269C15.0811 15.7229 15.9621 13.5587 17.724 11.7765C19.4859 9.99369 21.6256 9.10229 24.1429 9.10229C26.6597 9.10229 28.8005 9.99369 30.5651 11.7765C32.3292 13.5587 33.2113 15.7229 33.2113 18.269C33.2113 19.3545 33.0201 20.3887 32.6377 21.3715C32.2554 22.3542 31.7156 23.2645 31.0184 24.1023H17.2749ZM33.7223 70.8973C30.411 70.8973 27.575 69.7045 25.2142 67.319C22.854 64.934 21.6739 62.0667 21.6739 58.7173H21.4399C20.6663 58.7173 20.0015 58.4537 19.4455 57.9265C18.8896 57.3992 18.561 56.7592 18.4599 56.0065L15.9497 30.8781C15.8398 29.9742 16.0854 29.1959 16.6865 28.5431C17.2881 27.8904 18.0358 27.564 18.9297 27.564H29.3636C30.2575 27.564 31.0049 27.8904 31.606 28.5431C32.207 29.1959 32.4526 29.9742 32.3427 30.8781L29.8325 56.0065C29.7314 56.7592 29.4029 57.3992 28.8469 57.9265C28.2909 58.4537 27.6264 58.7173 26.8534 58.7173H26.6185C26.6185 60.7006 27.3138 62.3931 28.7043 63.7948C30.0948 65.1965 31.7664 65.8973 33.719 65.8973C35.6715 65.8973 37.3428 65.1942 38.7328 63.7881C40.1233 62.382 40.8186 60.6917 40.8186 58.7173V21.2823C40.8186 17.9329 41.9976 15.0656 44.3556 12.6806C46.7136 10.2951 49.5483 9.10229 52.8595 9.10229C56.1707 9.10229 59.0067 10.2951 61.3675 12.6806C63.7277 15.0656 64.9078 17.9329 64.9078 21.2823V68.3973C64.9078 69.1056 64.6708 69.6992 64.1966 70.1781C63.7225 70.6576 63.1349 70.8973 62.4339 70.8973C61.7334 70.8973 61.1464 70.6576 60.6728 70.1781C60.1998 69.6992 59.9632 69.1056 59.9632 68.3973V21.2823C59.9632 19.3079 59.268 17.6176 57.8774 16.2115C56.4869 14.8054 54.8154 14.1023 52.8628 14.1023C50.9102 14.1023 49.239 14.8054 47.849 16.2115C46.4584 17.6176 45.7632 19.3079 45.7632 21.2823V58.7173C45.7632 62.0667 44.5842 64.934 42.2261 67.319C39.8681 69.7045 37.0335 70.8973 33.7223 70.8973ZM23.2018 53.7181H25.0906L27.1641 32.564H21.1292L23.2018 53.7181Z" fill="#1C1B1F"/>
</g>
</svg>
