<svg width="80" height="80" viewBox="0 0 80 80" fill="none" xmlns="http://www.w3.org/2000/svg">
<mask id="mask0_27_122" style="mask-type:alpha" maskUnits="userSpaceOnUse" x="0" y="0" width="80" height="80">
<rect x="0.44873" width="79.1136" height="80" fill="#D9D9D9"/>
</mask>
<g mask="url(#mask0_27_122)">
<path d="M46.9468 64.9998C43.7741 64.9998 41.0581 63.8573 38.799 61.5723C36.5393 59.2879 35.4094 56.5415 35.4094 53.3331C35.4094 50.1248 36.5393 47.3784 38.799 45.094C41.0581 42.809 43.7741 41.6665 46.9468 41.6665C48.2105 41.6665 49.3939 41.8567 50.4971 42.2373C51.6003 42.6173 52.6144 43.1879 53.5396 43.949V17.4998C53.5396 16.6465 53.8264 15.9309 54.4 15.3531C54.9736 14.7759 55.6842 14.4873 56.5319 14.4873H68.5028C69.3505 14.4873 70.0587 14.7759 70.6273 15.3531C71.1954 15.9309 71.4795 16.6465 71.4795 17.4998V20.3206C71.4795 21.174 71.1941 21.8895 70.6232 22.4673C70.0519 23.0445 69.3442 23.3331 68.5003 23.3331H58.4842V53.3331C58.4842 56.5415 57.3547 59.2879 55.0955 61.5723C52.8359 63.8573 50.1196 64.9998 46.9468 64.9998ZM23.3586 29.3973C20.5946 32.1923 18.3569 35.3995 16.6455 39.019C14.9336 42.639 13.9109 46.5109 13.5774 50.6348C13.5098 51.3654 13.239 51.9976 12.7648 52.5315C12.2912 53.0659 11.7042 53.3331 11.0037 53.3331C10.2807 53.3331 9.68792 53.052 9.22532 52.4898C8.76273 51.9281 8.56522 51.282 8.63279 50.5515C8.98771 45.7181 10.1519 41.1987 12.1253 36.9931C14.0993 32.7881 16.6689 29.0854 19.834 25.8848C22.9996 22.6837 26.6564 20.0906 30.8044 18.1056C34.9523 16.1206 39.4162 14.9487 44.196 14.5898C44.9184 14.5215 45.5577 14.7212 46.1137 15.189C46.6691 15.6568 46.9468 16.2506 46.9468 16.9706C46.9468 17.6912 46.6828 18.2906 46.1549 18.769C45.6264 19.2479 45.0009 19.5215 44.2784 19.5898C40.2002 19.927 36.3849 20.9473 32.8325 22.6506C29.2806 24.3534 26.1227 26.6023 23.3586 29.3973ZM32.8292 39.0065C31.2953 40.5576 30.0234 42.3384 29.0136 44.349C28.0033 46.3601 27.3649 48.5173 27.0984 50.8206C26.9748 51.5506 26.6762 52.152 26.2026 52.6248C25.729 53.097 25.142 53.3331 24.4415 53.3331C23.741 53.3331 23.1625 53.0659 22.7059 52.5315C22.2494 51.9976 22.0549 51.3759 22.1225 50.6665C22.4225 47.6881 23.1968 44.9179 24.4456 42.3556C25.6944 39.7934 27.3143 37.5059 29.3053 35.4931C31.2958 33.4804 33.5577 31.8426 36.091 30.5798C38.6248 29.317 41.3644 28.534 44.3097 28.2306C45.0113 28.1623 45.6264 28.3581 46.1549 28.8181C46.6828 29.2781 46.9468 29.8637 46.9468 30.5748C46.9468 31.2854 46.7133 31.8798 46.2464 32.3581C45.7788 32.8365 45.1841 33.1379 44.4622 33.2623C42.1844 33.5318 40.0596 34.1687 38.0878 35.1731C36.1165 36.177 34.3637 37.4548 32.8292 39.0065Z" fill="#1C1B1F"/>
</g>
</svg>
