<svg width="80" height="80" viewBox="0 0 80 80" fill="none" xmlns="http://www.w3.org/2000/svg">
<mask id="mask0_27_116" style="mask-type:alpha" maskUnits="userSpaceOnUse" x="0" y="0" width="80" height="80">
<rect x="0.44873" width="79.1136" height="80" fill="#D9D9D9"/>
</mask>
<g mask="url(#mask0_27_116)">
<path d="M60.4573 72.4099C59.7546 72.4099 59.1668 72.1699 58.6937 71.6899C58.2201 71.2094 57.9833 70.6144 57.9833 69.9049C57.9833 69.571 58.0457 69.2388 58.1704 68.9082C58.2951 68.5777 58.461 68.3091 58.6682 68.1024C61.052 65.6924 62.901 62.9371 64.2152 59.8366C65.5294 56.736 66.1864 53.3902 66.1864 49.7991C66.1864 46.2619 65.5294 42.9346 64.2152 39.8174C62.901 36.6996 61.052 33.9357 58.6682 31.5257C58.461 31.3174 58.2951 31.0469 58.1704 30.7141C58.0457 30.3813 57.9833 30.0482 57.9833 29.7149C57.9833 29.0077 58.221 28.4146 58.6962 27.9357C59.1709 27.4574 59.7593 27.2182 60.4614 27.2182C60.7916 27.2182 61.1111 27.2905 61.4198 27.4349C61.7292 27.5793 61.9868 27.7549 62.1928 27.9616C65.0327 30.8332 67.2325 34.143 68.7922 37.8907C70.3514 41.6385 71.131 45.6085 71.131 49.8007C71.131 54.0446 70.3514 58.0318 68.7922 61.7624C67.2325 65.4935 65.0327 68.7949 62.1928 71.6666C61.9863 71.8732 61.7281 72.0488 61.4182 72.1932C61.1083 72.3377 60.788 72.4099 60.4573 72.4099ZM51.7878 63.6474C51.0878 63.6474 50.5013 63.4071 50.0283 62.9266C49.5547 62.4466 49.3179 61.8516 49.3179 61.1416C49.3179 60.8077 49.3894 60.4846 49.5322 60.1724C49.6756 59.8596 49.8492 59.5991 50.053 59.3907C51.3128 58.1174 52.288 56.6635 52.9786 55.0291C53.6697 53.3941 54.0153 51.6557 54.0153 49.8141C54.0153 47.9719 53.6615 46.2335 52.9539 44.5991C52.2457 42.9646 51.2787 41.5107 50.053 40.2374C49.808 40.028 49.6242 39.7666 49.5017 39.4532C49.3792 39.1399 49.3179 38.8163 49.3179 38.4824C49.3179 37.7719 49.5553 37.1771 50.03 36.6982C50.5052 36.2199 51.0936 35.9807 51.7952 35.9807C52.1259 35.9807 52.4547 36.0427 52.7816 36.1666C53.108 36.2905 53.3733 36.4763 53.5777 36.7241C55.266 38.4313 56.5851 40.4052 57.535 42.6457C58.4849 44.8863 58.9599 47.2757 58.9599 49.8141C58.9599 52.3524 58.4849 54.7419 57.535 56.9824C56.5851 59.223 55.266 61.1968 53.5777 62.9041C53.3722 63.1519 53.1047 63.3377 52.775 63.4616C52.4459 63.5855 52.1169 63.6474 51.7878 63.6474ZM27.6441 49.4874H20.2272V50.8207C20.2272 52.808 20.8601 54.5377 22.1259 56.0099C23.3918 57.4821 24.9735 58.4682 26.8711 58.9682L27.86 59.2182C29.8247 59.731 30.9075 61.0344 31.1086 63.1282C31.3092 65.2221 30.4513 66.7374 28.535 67.6741C25.8193 69.0324 23.0025 69.9977 20.0846 70.5699C17.1662 71.1427 14.1921 71.491 11.1621 71.6149C10.4605 71.6494 9.87323 71.4268 9.40019 70.9474C8.92661 70.468 8.68982 69.8741 8.68982 69.1657C8.68982 68.4569 8.92689 67.8649 9.40102 67.3899C9.8746 66.9149 10.4616 66.6566 11.1621 66.6149C13.3724 66.5255 15.5469 66.3107 17.6857 65.9707C19.824 65.6313 21.9433 65.0749 24.0436 64.3016C24.2974 64.1944 24.4136 63.9966 24.3922 63.7082C24.3713 63.4199 24.1812 63.233 23.8219 63.1474C21.2524 62.1257 19.1867 60.4974 17.6247 58.2624C16.0633 56.0274 15.2826 53.5255 15.2826 50.7566V47.4999C15.2826 46.6466 15.5683 45.931 16.1397 45.3532C16.7105 44.776 17.4181 44.4874 18.2626 44.4874H27.4537C27.7499 44.4874 27.993 44.3913 28.1831 44.1991C28.3732 44.0063 28.4682 43.7605 28.4682 43.4616V37.8207C28.4682 36.9669 28.7539 36.2513 29.3253 35.6741C29.8961 35.0963 30.6037 34.8074 31.4482 34.8074H38.4522C38.8329 34.8074 39.1235 34.6527 39.3241 34.3432C39.5252 34.0332 39.5411 33.7071 39.3719 33.3649L30.4716 15.0449C30.159 14.4255 30.1115 13.7971 30.329 13.1599C30.5466 12.5232 30.9617 12.0363 31.5742 11.6991C32.1874 11.3613 32.8192 11.3077 33.4697 11.5382C34.1207 11.7694 34.6025 12.1946 34.9151 12.8141L43.8476 31.1666C44.8195 33.1749 44.7348 35.1171 43.5937 36.9932C42.4532 38.8694 40.7668 39.8074 38.5346 39.8074H33.4128V43.6541C33.4128 45.2735 32.8519 46.6505 31.73 47.7849C30.6076 48.9199 29.2456 49.4874 27.6441 49.4874Z" fill="#1C1B1F"/>
</g>
</svg>
